<svg width="20" height="20" viewBox="0 0 20 20" fill="none"
    xmlns="http://www.w3.org/2000/svg">
    <path fill-rule="evenodd" clip-rule="evenodd" d="M3.74982 9.375C3.91558 9.375 4.07455 9.44085 4.19176 9.55806C4.30897 9.67527 4.37482 9.83424 4.37482 10V15.625H9.99982C10.1656 15.625 10.3245 15.6908 10.4418 15.8081C10.559 15.9253 10.6248 16.0842 10.6248 16.25C10.6248 16.4158 10.559 16.5747 10.4418 16.6919C10.3245 16.8092 10.1656 16.875 9.99982 16.875H3.74982C3.58406 16.875 3.42509 16.8092 3.30788 16.6919C3.19067 16.5747 3.12482 16.4158 3.12482 16.25V10C3.12482 9.83424 3.19067 9.67527 3.30788 9.55806C3.42509 9.44085 3.58406 9.375 3.74982 9.375Z" fill="#03262f"/>
    <path fill-rule="evenodd" clip-rule="evenodd" d="M15.4425 4.55752C15.5007 4.61558 15.5469 4.68455 15.5784 4.76048C15.6099 4.83641 15.6261 4.91781 15.6261 5.00002C15.6261 5.08223 15.6099 5.16363 15.5784 5.23956C15.5469 5.31549 15.5007 5.38446 15.4425 5.44252L4.1925 16.6925C4.07514 16.8099 3.91597 16.8758 3.75 16.8758C3.58403 16.8758 3.42485 16.8099 3.3075 16.6925C3.19014 16.5752 3.12421 16.416 3.12421 16.25C3.12421 16.084 3.19014 15.9249 3.3075 15.8075L14.5575 4.55752C14.6156 4.49931 14.6845 4.45314 14.7605 4.42163C14.8364 4.39012 14.9178 4.3739 15 4.3739C15.0822 4.3739 15.1636 4.39012 15.2395 4.42163C15.3155 4.45314 15.3844 4.49931 15.4425 4.55752V4.55752Z" fill="#03262f"/>
</svg>
