<svg width="1628" height="1327" viewBox="0 0 1628 1327" fill="none"
    xmlns="http://www.w3.org/2000/svg">
    <path d="M1583 507.241C1562.5 586 1456.5 688.085 1317 742.5C1205.45 786.011 1065.64 776.916 944.974 772.389C845.746 768.666 755.499 728.669 671.527 679.47C595.148 634.721 542.719 560.752 472.873 507.241C401.593 452.632 290.043 488.032 214.357 518.308C153.933 542.479 66.0527 595.262 10.0407 633.609" stroke="#eeeeee" stroke-linecap="round" stroke-linejoin="round"/>
    <path d="M1369 346C1319 372 1301.47 531.26 1285.83 588.889C1265.41 664.154 1240.24 742.063 1191.13 803.493C1150.74 854.01 1094.84 885.773 1036.55 910.686C983.534 933.347 924.493 932.148 869.418 947.994C813.213 964.165 788.54 1036.29 775.076 1087.65C764.328 1128.65 757.926 1195.11 756.309 1239.3" stroke="#eeeeee" stroke-linecap="round" stroke-linejoin="round"/>
</svg>
