<svg width="1338" height="886" viewBox="0 0 1338 886" fill="none"
    xmlns="http://www.w3.org/2000/svg">
    <path d="M0 434C78.1266 346.878 177.191 293.607 288.275 257.153C401.692 219.933 526.3 198.348 646.781 207.307C721.432 212.858 795.344 226.596 851.972 284.092C886.959 327.08 899.981 395.171 883.234 446.807C868.818 491.258 833.009 521.006 784.686 507.616C693 482.21 674.634 358.962 670.765 279.262C666.512 191.678 689.438 116.07 745.475 49.7461C770.595 20.0148 797.174 -10.2787 828.281 -33.9732C866.536 -63.1121 912.413 -80.7407 959.311 -91.4178C1029.72 -107.448 1105.77 -111.523 1177.89 -101.518C1215.26 -96.3326 1252.23 -90.1122 1289.85 -87.2022" stroke="#5f514e" stroke-opacity=".7" stroke-miterlimit="3.63238" stroke-dasharray="10 10"/>
</svg>
